<?xml version="1.0" ?>
<svg xmlns="http://www.w3.org/2000/svg" width="812" height="812">
	<path d="M 288 343 274 357 274 358 256 376 256 377 239 394 239 395 222 412 222 413 204 431 204 432 187 449 187 450 170 467 170 468 153 485 153 486 135 504 135 505 118 522 118 523 101 540 101 541 84 558 84 559 66 577 66 578 61 583 61 584 62 584 63 585 64 585 65 586 66 586 67 587 68 587 69 588 70 588 71 589 72 589 73 590 74 590 75 591 76 591 77 592 78 592 79 593 80 593 81 594 82 594 83 595 84 595 86 597 87 597 88 598 89 598 90 599 91 599 92 600 93 600 94 601 95 601 96 602 97 602 98 603 99 603 100 604 101 604 102 605 103 605 104 606 105 606 106 607 107 607 108 608 109 608 110 609 111 609 112 610 113 610 114 611 115 611 116 612 117 612 118 613 119 613 120 614 121 614 122 615 123 615 124 616 125 616 126 617 127 617 128 618 129 618 130 619 131 619 132 620 133 620 135 622 136 622 137 623 138 623 139 624 140 624 141 625 142 625 143 626 144 626 145 627 146 627 147 628 148 628 149 629 150 629 151 630 152 630 153 631 154 631 155 632 156 632 157 633 158 633 159 634 160 634 161 635 162 635 163 636 164 636 165 637 166 637 167 638 168 638 169 639 170 639 171 640 172 640 173 641 174 641 175 642 176 642 177 643 178 643 179 644 180 644 181 645 182 645 184 647 185 647 186 648 187 648 188 649 189 649 190 650 191 650 192 651 193 651 194 652 195 652 196 653 197 653 198 654 199 654 200 655 201 655 202 656 203 656 204 657 205 657 206 658 207 658 208 659 209 659 210 660 211 660 212 661 213 661 214 662 215 662 216 663 217 663 218 664 219 664 220 665 221 665 222 666 223 666 224 667 225 667 226 668 227 668 228 669 229 669 231 671 232 671 233 672 234 672 235 673 236 673 237 674 238 674 239 675 240 675 241 676 242 676 243 677 244 677 245 678 246 678 247 679 248 679 249 680 250 680 251 681 252 681 253 682 254 682 255 683 256 683 257 684 258 684 259 685 260 685 261 686 262 686 263 687 264 687 265 688 266 688 267 689 268 689 269 690 270 690 271 691 272 691 273 692 274 692 275 693 276 693 277 694 278 694 280 696 281 696 282 697 283 697 284 698 285 698 286 699 288 699 Z" fill="white" stroke="black" stroke-width="1"/>
	<path d="M 426 196 419 203 419 204 404 219 404 220 389 235 389 236 373 252 373 253 358 268 358 269 343 284 343 285 328 300 328 301 313 316 313 317 310 320 310 381 311 382 311 581 312 582 312 711 680 711 810 581 810 580 428 580 427 579 427 196 Z" fill="white" stroke="black" stroke-width="1"/>
	<path d="M 427 99 416 110 416 111 401 126 401 127 386 142 386 143 372 157 372 158 357 173 357 174 342 189 342 190 327 205 327 206 312 221 312 222 298 236 298 237 283 252 283 253 268 268 268 269 253 284 253 285 238 300 238 301 223 316 223 317 208 332 208 333 193 348 193 349 178 364 178 365 163 380 163 381 148 396 148 397 133 412 133 413 118 428 118 429 103 444 103 445 88 460 88 461 73 476 73 477 58 492 58 493 43 508 43 509 28 524 28 525 13 540 13 541 0 554 0 555 1 555 2 556 3 556 4 557 5 557 6 558 7 558 8 559 9 559 11 561 12 561 13 562 14 562 15 563 16 563 17 564 18 564 19 565 20 565 21 566 22 566 23 567 24 567 25 568 26 568 27 569 28 569 29 570 30 570 31 571 32 571 33 572 34 572 35 573 36 573 37 574 38 574 39 575 41 575 52 564 52 563 67 548 67 547 82 532 82 531 97 516 97 515 111 501 111 500 126 485 126 484 141 469 141 468 156 453 156 452 171 437 171 436 186 421 186 420 200 406 200 405 215 390 215 389 230 374 230 373 245 358 245 357 259 343 259 342 274 327 274 326 289 311 289 310 304 295 304 294 319 279 319 278 333 264 333 263 348 248 348 247 363 232 363 231 377 217 377 216 392 201 392 200 407 185 407 184 422 169 422 168 427 163 Z" fill="white" stroke="black" stroke-width="1"/>
</svg>
